<?xml version="1.0" standalone="no"?>
<!DOCTYPE svg PUBLIC "-//W3C//DTD SVG 20010904//EN"
 "http://www.w3.org/TR/2001/REC-SVG-20010904/DTD/svg10.dtd">
<svg version="1.0" xmlns="http://www.w3.org/2000/svg"
 width="512.000000pt" height="512.000000pt" viewBox="0 0 512.000000 512.000000"
 preserveAspectRatio="xMidYMid meet">
<metadata>
Created by potrace 1.11, written by Peter Selinger 2001-2013
</metadata>
<g transform="translate(0.000000,512.000000) scale(0.100000,-0.100000)"
fill="#000000" stroke="none">
<path d="M2379 5116 c-2 -2 -40 -6 -83 -10 -44 -4 -82 -9 -85 -11 -4 -2 -34
-7 -66 -10 -109 -13 -389 -87 -490 -130 -26 -11 -60 -24 -75 -28 -3 0 -40 -18
-83 -39 -43 -21 -80 -38 -84 -38 -3 0 -28 -13 -54 -30 -27 -16 -49 -26 -49
-22 0 4 -4 2 -8 -4 -4 -6 -27 -22 -52 -35 -179 -96 -467 -337 -620 -518 -25
-30 -50 -59 -55 -65 -51 -55 -215 -295 -215 -314 0 -6 -4 -12 -9 -14 -11 -3
-116 -211 -156 -307 -43 -104 -80 -213 -111 -331 -6 -21 -43 -184 -44 -190 0
-3 -2 -18 -5 -35 -3 -16 -7 -43 -10 -60 -14 -89 -20 -190 -19 -375 0 -184 3
-241 19 -345 3 -16 7 -43 9 -60 7 -45 25 -134 36 -174 5 -20 11 -45 13 -56 7
-41 60 -203 97 -295 135 -339 319 -618 576 -874 198 -198 413 -352 666 -478
65 -32 124 -58 131 -58 8 0 20 -7 27 -15 6 -8 15 -14 18 -12 6 1 97 -29 182
-61 21 -7 97 -30 130 -38 34 -8 181 -42 185 -43 3 0 20 -2 38 -5 153 -25 224
-30 422 -31 231 0 299 6 505 46 58 12 115 23 128 25 47 9 320 103 387 134 309
140 568 315 790 535 33 33 59 62 58 66 -1 3 9 12 22 19 14 7 25 16 25 20 0 4
12 20 26 36 51 58 61 70 106 129 57 75 155 226 186 285 67 127 113 222 137
280 56 138 121 350 140 459 3 19 7 37 9 40 3 5 9 42 22 131 20 146 26 454 12
600 -47 468 -224 922 -507 1295 -25 33 -50 65 -56 71 -5 6 -28 33 -50 59 -163
195 -450 430 -675 553 -63 34 -260 132 -266 132 -3 0 -20 6 -37 14 -137 62
-421 138 -607 162 -25 3 -56 8 -70 10 -29 6 -456 15 -461 10z"/>
</g>
</svg>
